<svg width="53" height="41" viewBox="0 0 53 41" fill="none" xmlns="http://www.w3.org/2000/svg">
<path d="M25.3122 0.49654C25.1809 0.780276 23.9556 2.70968 22.6136 4.79515C21.2567 6.88062 19.521 9.57611 18.7624 10.782C16.3992 14.5415 15.9029 15.3076 14.1525 18.0456C11.5996 22.018 9.61578 25.1249 7.48586 28.5155C6.4209 30.1897 4.71417 32.8708 3.69298 34.4739C1.70887 37.5809 -0.0708619 40.5743 0.00217197 40.6595C0.031436 40.6736 0.673198 40.319 1.43177 39.8366C2.19034 39.3684 3.94082 38.3045 5.29767 37.4817C10.4764 34.3747 11.4976 33.7647 13.8461 32.3318C15.1881 31.5231 16.9534 30.4307 17.785 29.9199C18.6163 29.4094 20.2503 28.4019 21.4318 27.6927C22.5991 26.9834 23.7368 26.2314 23.9701 26.0044C24.3933 25.5931 26.2314 22.9401 26.2314 22.7273C26.2314 22.6422 18.8937 22.2449 17.0117 22.2308C16.5595 22.2308 16.5595 22.2449 17.3618 21.1668C18.3975 19.7906 19.0103 19.4927 23.3139 18.2301C24.8017 17.7903 26.9899 17.1377 28.1862 16.7688L30.3451 16.1162L32.4895 12.9384C35.874 7.88788 36.6618 6.88062 38.0332 5.71728C38.7187 5.14983 39.7106 4.45465 40.2651 4.18511L41.257 3.6744V4.99377C41.2422 8.00137 40.586 9.39167 35.8302 16.4567C35.276 17.2796 35.1299 17.6059 35.1884 17.9038C35.276 18.3436 37.114 22.8692 38.179 25.3093L38.9375 26.9975L38.179 28.1183C37.7558 28.7284 37.3619 29.2674 37.3036 29.3099C37.2308 29.3525 36.6033 28.9268 35.9032 28.3737C35.1884 27.8063 33.8608 26.7706 32.9417 26.047C32.0228 25.3234 31.1767 24.6141 31.0599 24.4865C30.9579 24.3588 30.7828 24.2595 30.6807 24.2595C30.5639 24.2595 29.9949 24.8554 29.3969 25.5647C25.5166 30.2179 23.1095 33.0411 18.9083 37.9071C17.5514 39.4676 16.4574 40.8013 16.4574 40.8723C16.4574 40.9431 18.6456 41 21.6944 41H26.9461L27.2818 40.5459C27.4714 40.3049 27.8505 39.723 28.1277 39.2692C28.405 38.8294 29.0761 37.7653 29.6158 36.9283L30.5932 35.3962L35.7574 35.4388L40.9214 35.467L41.4611 37.8504C41.7675 39.1556 42.0594 40.3756 42.1176 40.5743L42.2344 40.929H53L52.956 40.4325C52.9431 40.1628 52.7954 39.3543 52.6349 38.6592C52.4743 37.9497 52.0366 36.0345 51.674 34.4031C51.2933 32.7575 50.8996 31.0407 50.7986 30.5725C50.6821 30.1046 50.5345 29.4376 50.4619 29.083C50.3739 28.7284 50.0242 27.1963 49.6461 25.6783C49.281 24.1602 48.7552 21.947 48.4781 20.7837C48.201 19.6062 47.7037 17.5349 47.3852 16.173C47.0485 14.8111 46.6263 13.0235 46.4502 12.2007C46.1291 10.7678 45.5179 8.19999 44.3203 3.26298C44.0142 1.97197 43.7223 0.709341 43.664 0.45398L43.5617 0H25.5603L25.3122 0.49654Z" fill="#415A77"/>
</svg>
