<svg width="15" height="22" viewBox="0 0 15 22" fill="none" xmlns="http://www.w3.org/2000/svg">
<path d="M8.3671 6L4.9 11H10.1L6.6329 16M1 18.5V4.75C1 4.08696 1.27393 3.45107 1.76152 2.98223C2.24912 2.51339 2.91044 2.25 3.6 2.25H4.25C4.42239 2.25 4.58772 2.18415 4.70962 2.06694C4.83152 1.94973 4.9 1.79076 4.9 1.625C4.9 1.45924 4.96848 1.30027 5.09038 1.18306C5.21228 1.06585 5.37761 1 5.55 1H9.45C9.62239 1 9.78772 1.06585 9.90962 1.18306C10.0315 1.30027 10.1 1.45924 10.1 1.625C10.1 1.79076 10.1685 1.94973 10.2904 2.06694C10.4123 2.18415 10.5776 2.25 10.75 2.25H11.4C12.0896 2.25 12.7509 2.51339 13.2385 2.98223C13.7261 3.45107 14 4.08696 14 4.75V18.5C14 19.163 13.7261 19.7989 13.2385 20.2678C12.7509 20.7366 12.0896 21 11.4 21H3.6C2.91044 21 2.24912 20.7366 1.76152 20.2678C1.27393 19.7989 1 19.163 1 18.5Z" stroke="#C5A059" stroke-width="2" stroke-linecap="round" stroke-linejoin="round"/>
</svg>
