<svg width="13" height="22" viewBox="0 0 13 22" fill="none" xmlns="http://www.w3.org/2000/svg">
<path d="M8.70027 2.57895C8.70027 4.29053 9.25797 5.96 10.2953 7.35474L10.3503 7.42842C11.4232 8.87148 11.9999 10.5984 12.0003 12.3695V18.8947C12.0003 19.4531 11.7685 19.9886 11.3559 20.3834C10.9433 20.7782 10.3838 21 9.80027 21H3.20027C2.6168 21 2.05722 20.7782 1.64464 20.3834C1.23206 19.9886 1.00027 19.4531 1.00027 18.8947V12.3684C1.00027 10.5979 1.57667 8.87158 2.65027 7.42842L2.70527 7.35474C3.74296 5.96025 4.3005 4.29086 4.30027 2.57895M1.00027 14.4768C1.44028 14.2958 1.82052 14.0036 2.10027 13.6316C2.35016 13.2984 2.68104 13.0285 3.06434 12.8451C3.44764 12.6617 3.87183 12.5704 4.30027 12.5789C4.72872 12.5704 5.15291 12.6617 5.53621 12.8451C5.91951 13.0285 6.25039 13.2984 6.50027 13.6316C6.75016 13.9647 7.08104 14.2347 7.46434 14.4181C7.84764 14.6015 8.27183 14.6928 8.70027 14.6842C9.12872 14.6928 9.55291 14.6015 9.93621 14.4181C10.3195 14.2347 10.6504 13.9647 10.9003 13.6316C11.1797 13.2588 11.56 12.9658 12.0003 12.7842M4.30027 4.15789H8.70027V2.05263C8.70027 1.77346 8.58438 1.50572 8.37809 1.30831C8.1718 1.1109 7.89201 1 7.60027 1H5.40027C5.10854 1 4.82875 1.1109 4.62246 1.30831C4.41617 1.50572 4.30027 1.77346 4.30027 2.05263V4.15789Z" stroke="#C5A059" stroke-width="2" stroke-linecap="round" stroke-linejoin="round"/>
</svg>
