<svg width="45" height="41" viewBox="0 0 45 41" fill="none" xmlns="http://www.w3.org/2000/svg">
<path d="M39.0789 32.7941C39.0789 31.6084 38.6132 30.4713 37.784 29.6329C36.9549 28.7945 35.8304 28.3235 34.6579 28.3235C33.4854 28.3235 32.3608 28.7945 31.5317 29.6329C30.7026 30.4713 30.2368 31.6084 30.2368 32.7941C30.2368 33.9798 30.7026 35.1169 31.5317 35.9553C32.3608 36.7937 33.4854 37.2647 34.6579 37.2647C35.8304 37.2647 36.9549 36.7937 37.784 35.9553C38.6132 35.1169 39.0789 33.9798 39.0789 32.7941ZM30.2368 32.7941H12.5526M39.0789 32.7941H43.5V21.6176M16.9737 5.97059H32.4474C38.5506 5.97059 43.5 12.976 43.5 21.6176M43.5 21.6176H33.5526L30.2368 5.97059M15.8684 17.1471H32.4474M21.3947 5.97059V17.1471M5.92105 14.9118V39.5M1.5 3.73529C1.5 3.14246 1.73289 2.5739 2.14745 2.1547C2.562 1.7355 3.12426 1.5 3.71053 1.5H8.13158C8.71785 1.5 9.2801 1.7355 9.69466 2.1547C10.1092 2.5739 10.3421 3.14246 10.3421 3.73529V12.6765C10.3421 13.2693 10.1092 13.8379 9.69466 14.2571C9.2801 14.6763 8.71785 14.9118 8.13158 14.9118H3.71053C3.12426 14.9118 2.562 14.6763 2.14745 14.2571C1.73289 13.8379 1.5 13.2693 1.5 12.6765V3.73529Z" stroke="#C5A059" stroke-width="3" stroke-linecap="round" stroke-linejoin="round"/>
</svg>
