<svg width="42" height="41" viewBox="0 0 42 41" fill="none" xmlns="http://www.w3.org/2000/svg">
<path d="M40.3741 22.6554C40.8175 18.872 40.0838 15.046 38.2683 11.6738C36.4528 8.30164 33.6392 5.53879 30.1925 3.74365C26.7458 1.94851 22.825 1.20393 18.9386 1.60647C15.0523 2.00902 11.3798 3.54012 8.39746 6.00118C5.41511 8.46224 3.26054 11.7397 2.21322 15.4084C1.1659 19.0772 1.27415 22.9679 2.52394 26.5759C3.77373 30.184 6.10738 33.3429 9.2222 35.6429C12.337 37.9429 16.0893 39.2779 19.9923 39.4747M20.9998 9.94441V20.5L27.4998 26.8333M27.4998 35.2778L31.8331 39.5L40.4998 31.0555" stroke="#C5A059" stroke-width="3" stroke-linecap="round" stroke-linejoin="round"/>
</svg>
