<svg width="21" height="22" viewBox="0 0 21 22" fill="none" xmlns="http://www.w3.org/2000/svg">
<path d="M19.9831 11.0317C20.099 9.0731 19.6023 7.12689 18.5615 5.46188C17.5206 3.79687 15.9871 2.49521 14.1726 1.73665C12.3581 0.978099 10.3522 0.800081 8.43187 1.22718C6.51157 1.65429 4.77162 2.66544 3.45231 4.12099C2.133 5.57655 1.29943 7.40469 1.0667 9.35296C0.833977 11.3012 1.21359 13.2735 2.1531 14.9974C3.09262 16.7213 4.5457 18.1117 6.31165 18.9767C8.07761 19.8417 10.0693 20.1386 12.0117 19.8263M10.5002 5.21077V10.4738L13.6668 13.6317M17.8889 14.6843L15.7779 17.8422H20L17.8889 21" stroke="#415A77" stroke-width="2" stroke-linecap="round" stroke-linejoin="round"/>
</svg>
