<svg width="22" height="22" viewBox="0 0 22 22" fill="none" xmlns="http://www.w3.org/2000/svg">
<path d="M20.498 11.9115L20.704 11.7035C20.7977 11.6118 20.8722 11.5024 20.923 11.3816C20.9738 11.2608 21 11.131 21 11C21 10.8689 20.9738 10.7392 20.923 10.6183C20.8722 10.4975 20.7977 10.3881 20.704 10.2965L11.859 1.34846C11.6289 1.125 11.3208 1 11 1C10.6792 1 10.3711 1.125 10.141 1.34846L1.296 10.2975C1.2023 10.3891 1.12784 10.4985 1.07701 10.6193C1.02618 10.7402 1 10.8699 1 11.001M1 11.001C1 11.132 1.02618 11.2618 1.07701 11.3826C1.12784 11.5034 1.2023 11.6128 1.296 11.7045L10.141 20.6535C10.3714 20.8766 10.6795 21.0012 11.0002 21.001C11.3209 21.0008 11.6289 20.8758 11.859 20.6525L11.939 20.5715M1 11.001C1.004 11.087 1.103 11.1785 1.296 11.2465L10.141 13.8785C10.6 14.0415 11.4 14.0415 11.859 13.8785L14.493 13.0945M19.903 11.4845L20.704 11.2465C20.899 11.1765 20.998 11.0905 21 11.0035M11 1.12046V20.8805M15 18.0005H21M18 15.0005V21.0005" stroke="#415A77" stroke-width="2" stroke-linecap="round" stroke-linejoin="round"/>
</svg>
