<svg width="22" height="22" viewBox="0 0 22 22" fill="none" xmlns="http://www.w3.org/2000/svg">
<path d="M19 10.0001C19 8.2192 18.4716 6.47831 17.4818 4.99781C16.4919 3.51732 15.085 2.36378 13.4393 1.68322C11.7935 1.00265 9.98285 0.825649 8.23645 1.17462C6.49005 1.52359 4.88645 2.38285 3.62861 3.64362C2.37078 4.9044 1.51528 6.51001 1.17038 8.25722C0.825492 10.0044 1.00672 11.8147 1.69113 13.4588C2.37554 15.103 3.53236 16.5072 5.01516 17.4936C6.49797 18.48 8.24008 19.0043 10.021 19.0001M1.6 7.00012H18.4M1.6 13.0001H10.5M9.5 1.00012C7.81534 3.69973 6.92221 6.81799 6.92221 10.0001C6.92221 13.1823 7.81534 16.3005 9.5 19.0001M10.5 1.00012C12.4333 4.09814 13.3176 7.73635 13.022 11.3761M17.001 19.0001C16.4706 19.0001 15.9619 18.7894 15.5868 18.4143C15.2117 18.0393 15.001 17.5306 15.001 17.0001C15.001 16.4697 15.2117 15.961 15.5868 15.5859C15.9619 15.2108 16.4706 15.0001 17.001 15.0001M17.001 19.0001C17.5314 19.0001 18.0401 18.7894 18.4152 18.4143C18.7903 18.0393 19.001 17.5306 19.001 17.0001C19.001 16.4697 18.7903 15.961 18.4152 15.5859C18.0401 15.2108 17.5314 15.0001 17.001 15.0001M17.001 19.0001V20.5001M17.001 15.0001V13.5001M20.032 15.2501L18.733 16.0001M15.27 18.0001L13.97 18.7501M13.97 15.2501L15.27 16.0001M18.733 18.0001L20.033 18.7501" stroke="black" stroke-width="2" stroke-linecap="round" stroke-linejoin="round"/>
</svg>
