<svg width="37" height="44" viewBox="0 0 37 44" fill="none" xmlns="http://www.w3.org/2000/svg">
<path d="M1.5 25.2368V18.7632C1.5 14.1847 3.29107 9.79373 6.47918 6.55626C9.6673 3.31879 13.9913 1.5 18.5 1.5C23.0087 1.5 27.3327 3.31879 30.5208 6.55626C33.7089 9.79373 35.5 14.1847 35.5 18.7632V25.2368M1.5 25.2368C1.5 24.0922 1.94777 22.9945 2.7448 22.1851C3.54183 21.3758 4.62283 20.9211 5.75 20.9211H7.875C9.00217 20.9211 10.0832 21.3758 10.8802 22.1851C11.6772 22.9945 12.125 24.0922 12.125 25.2368V31.7105C12.125 32.8551 11.6772 33.9529 10.8802 34.7623C10.0832 35.5716 9.00217 36.0263 7.875 36.0263H5.75C4.62283 36.0263 3.54183 35.5716 2.7448 34.7623C1.94777 33.9529 1.5 32.8551 1.5 31.7105V25.2368ZM35.5 25.2368C35.5 24.0922 35.0522 22.9945 34.2552 22.1851C33.4582 21.3758 32.3772 20.9211 31.25 20.9211H29.125C27.9978 20.9211 26.9168 21.3758 26.1198 22.1851C25.3228 22.9945 24.875 24.0922 24.875 25.2368V31.7105C24.875 32.8551 25.3228 33.9529 26.1198 34.7623C26.9168 35.5716 27.9978 36.0263 29.125 36.0263H31.25M35.5 25.2368V31.7105C35.5 32.8551 35.0522 33.9529 34.2552 34.7623C33.4582 35.5716 32.3772 36.0263 31.25 36.0263M31.25 36.0263C31.25 39.6019 25.5422 42.5 18.5 42.5" stroke="#C5A059" stroke-width="3" stroke-linecap="round" stroke-linejoin="round"/>
</svg>
