<svg width="30" height="29" viewBox="0 0 30 29" fill="none" xmlns="http://www.w3.org/2000/svg">
<path d="M15 2.62048C18.9759 2.62048 19.5181 2.62048 21.1446 2.62048C22.5904 2.62048 23.3133 2.96988 23.8554 3.14458C24.5783 3.49398 25.1205 3.66868 25.6627 4.19277C26.2048 4.71687 26.5663 5.24096 26.747 5.93976C26.9277 6.46386 27.1084 7.16265 27.2892 8.56024C27.2892 10.1325 27.2892 10.4819 27.2892 14.5C27.2892 18.5181 27.2892 18.8675 27.2892 20.4398C27.2892 21.8374 26.9277 22.5361 26.747 23.0602C26.3855 23.759 26.2048 24.2831 25.6627 24.8072C25.1205 25.3313 24.5783 25.6807 23.8554 25.8554C23.3133 26.0301 22.5904 26.2048 21.1446 26.3795C19.5181 26.3795 19.1566 26.3795 15 26.3795C10.8434 26.3795 10.4819 26.3795 8.85542 26.3795C7.40964 26.3795 6.68675 26.0301 6.14458 25.8554C5.42169 25.506 4.87952 25.3313 4.33735 24.8072C3.79518 24.2831 3.43374 23.759 3.25301 23.0602C3.07229 22.5361 2.89157 21.8374 2.71084 20.4398C2.71084 18.8675 2.71084 18.5181 2.71084 14.5C2.71084 10.4819 2.71084 10.1325 2.71084 8.56024C2.71084 7.16265 3.07229 6.46386 3.25301 5.93976C3.61446 5.24096 3.79518 4.71687 4.33735 4.19277C4.87952 3.66868 5.42169 3.31928 6.14458 3.14458C6.68675 2.96988 7.40964 2.79518 8.85542 2.62048C10.4819 2.62048 11.0241 2.62048 15 2.62048ZM15 0C10.8434 0 10.4819 0 8.85542 0C7.22892 0 6.14458 0.349399 5.24097 0.698796C4.33735 1.04819 3.43374 1.57229 2.53012 2.44578C1.62651 3.31928 1.26506 4.01807 0.722893 5.06627C0.361447 5.93976 0.180723 6.98795 0 8.56024C0 10.1325 0 10.6566 0 14.5C0 18.5181 0 18.8675 0 20.4398C0 22.012 0.361447 23.0602 0.722893 23.9337C1.08434 24.8072 1.62651 25.6807 2.53012 26.5542C3.43374 27.4277 4.15663 27.7771 5.24097 28.3012C6.14458 28.6506 7.22892 28.8253 8.85542 29C10.4819 29 11.0241 29 15 29C18.9759 29 19.5181 29 21.1446 29C22.7711 29 23.8554 28.6506 24.759 28.3012C25.6627 27.9518 26.5663 27.4277 27.4699 26.5542C28.3735 25.6807 28.7349 24.9819 29.2771 23.9337C29.6386 23.0602 29.8193 22.012 30 20.4398C30 18.8675 30 18.3434 30 14.5C30 10.6566 30 10.1325 30 8.56024C30 6.98795 29.6386 5.93976 29.2771 5.06627C28.9157 4.19277 28.3735 3.31928 27.4699 2.44578C26.5663 1.57229 25.8434 1.22289 24.759 0.698796C23.8554 0.349399 22.7711 0.174699 21.1446 0C19.5181 0 19.1566 0 15 0Z" fill="#C5A059"/>
<path d="M15 6.98795C10.6627 6.98795 7.22892 10.3072 7.22892 14.5C7.22892 18.6928 10.6627 22.012 15 22.012C19.3374 22.012 22.7711 18.6928 22.7711 14.5C22.7711 10.3072 19.3374 6.98795 15 6.98795ZM15 19.3916C12.2892 19.3916 9.93976 17.2952 9.93976 14.5C9.93976 11.8795 12.1084 9.60843 15 9.60843C17.7108 9.60843 20.0602 11.7048 20.0602 14.5C20.0602 17.1205 17.7108 19.3916 15 19.3916Z" fill="#C5A059"/>
<path d="M22.9518 8.56024C23.9499 8.56024 24.759 7.77809 24.759 6.81325C24.759 5.84842 23.9499 5.06627 22.9518 5.06627C21.9537 5.06627 21.1446 5.84842 21.1446 6.81325C21.1446 7.77809 21.9537 8.56024 22.9518 8.56024Z" fill="#C5A059"/>
</svg>
