<svg width="182" height="27" viewBox="0 0 182 27" fill="none" xmlns="http://www.w3.org/2000/svg">
<path d="M9.24726 3.53436C7.21882 3.83697 5.27988 4.67276 3.83314 5.86159C2.25216 7.1657 1.21557 8.65715 0.514565 10.6385C0.0671172 11.921 0.00745747 12.3461 0 14.1834C0 15.646 0.0223724 15.9342 0.171522 16.6331C0.522023 18.2327 1.15591 19.6161 2.11046 20.8481C3.67653 22.8728 5.83919 24.184 8.55372 24.7461C9.44861 24.9333 11.8425 25.0126 12.7001 24.8901C15.6532 24.4434 17.9128 23.2113 19.4639 21.2155C19.9488 20.5887 20.8884 18.9171 20.8362 18.7658C20.8063 18.6793 19.7324 18.3191 17.5399 17.649C16.9284 17.4617 16.4213 17.3176 16.4064 17.332C16.399 17.3465 16.302 17.5121 16.1976 17.7138C15.9068 18.2543 15.7576 18.4488 15.1535 19.0468C14.2139 19.9691 13.0729 20.4951 11.7306 20.6319C10.4777 20.7544 9.17268 20.5094 8.09135 19.933C7.50967 19.6304 7.36053 19.5151 6.79375 18.9891C5.71988 17.9732 5.14565 16.8564 4.92193 15.329C4.78024 14.3635 4.78024 14.0393 4.92193 13.1315C5.33209 10.5088 6.91307 8.69317 9.41133 7.97987C10.2689 7.7349 11.6336 7.70608 12.4913 7.90781C14.1468 8.30409 15.4743 9.34882 16.2797 10.8763L16.4363 11.1645L18.6214 10.4728C20.6796 9.81716 20.8063 9.76672 20.7839 9.61541C20.7615 9.41368 20.1873 8.28969 19.8219 7.7421C18.6214 5.93363 16.6153 4.50704 14.3779 3.8874C12.715 3.42628 10.8357 3.29659 9.24726 3.53436Z" fill="#415A77"/>
<path d="M27.4286 7.96934C27.3541 8.06215 26.9587 8.83945 26.9587 8.89746C26.9587 8.92066 26.7574 9.33832 26.5188 9.82557C26.2727 10.3128 25.7506 11.3918 25.3554 12.2213C24.9602 13.0508 24.4606 14.0949 24.2368 14.5416C24.0205 14.9882 23.5581 15.9511 23.2077 16.6878C22.8571 17.4187 22.2084 18.7645 21.7684 19.6752C20.4782 22.3493 19.5013 24.4782 19.5013 24.6058C19.5013 24.6987 24.2368 24.6813 24.3263 24.5884C24.3711 24.5536 24.647 23.9851 24.9378 23.3297C25.8401 21.3459 25.6985 21.5662 26.0713 21.5314C26.2503 21.514 28.1296 21.514 30.24 21.5314L34.0732 21.5605L34.3119 22.0535C34.446 22.3261 34.7668 23.0164 35.0277 23.5907L35.505 24.6348L37.9436 24.6522C39.9944 24.6639 40.3822 24.6522 40.3822 24.5826C40.3822 24.4782 39.5544 22.6626 38.4134 20.2901C37.9063 19.2344 37.2276 17.819 36.9145 17.1519C36.5938 16.479 35.8928 15.0172 35.3484 13.9035C34.804 12.7839 34.3342 11.8094 34.3043 11.7282C34.2745 11.647 34.0881 11.2584 33.8867 10.8581C33.6854 10.4579 33.2902 9.65155 33.0143 9.05988L32.4996 7.98674L32.1716 7.94614C31.9926 7.92873 30.8665 7.90553 29.6658 7.90553C28.0028 7.89973 27.4734 7.91713 27.4286 7.96934ZM30.3817 13.3582C30.7621 14.1877 31.5302 15.8931 32.358 17.7726L32.6115 18.341L31.1051 18.3526C29.3899 18.3701 27.3167 18.3469 27.272 18.3121C27.2496 18.3004 27.4062 17.9292 27.615 17.4883C28.0625 16.5544 28.8828 14.7214 29.4794 13.3408C29.7106 12.8071 29.912 12.3779 29.9194 12.3895C29.9343 12.3953 30.1356 12.8303 30.3817 13.3582Z" fill="#415A77"/>
<path d="M41.0533 15.6553C41.0533 19.9247 41.0757 23.6951 41.1056 24.0432L41.1504 24.6639L43.4696 24.6522L45.7889 24.6348L45.8634 17.964L50.1664 17.9582L54.4768 17.9466L54.4918 21.2936L54.5142 24.6348L56.8334 24.6522L59.1527 24.6639L59.19 24.4202C59.2496 24.0025 59.257 8.64802 59.1974 8.27678L59.1377 7.92874L56.811 7.91133L54.4768 7.89973V14.6866H45.7889L45.8113 11.3396C45.8262 8.67123 45.8113 7.98674 45.7367 7.94614C45.6844 7.92293 44.6031 7.89973 43.3429 7.89973H41.0459L41.0533 15.6553Z" fill="#415A77"/>
<path d="M60.6217 7.98095C60.5993 8.02155 60.5919 10.5739 60.6069 13.6483C60.6367 19.1357 60.6367 19.2518 60.7933 19.8029C61.2183 21.2588 61.8224 22.1637 62.9932 23.0918C64.0223 23.8982 65.3499 24.4434 67.0799 24.7624C67.7213 24.8785 68.1239 24.9133 69.3097 24.9365C70.8087 24.9713 71.1443 24.9481 72.4493 24.7102C75.0072 24.252 77.1847 22.796 78.0424 20.9687C78.6166 19.7448 78.6539 19.2459 78.6241 12.9754L78.6018 7.92874L76.2974 7.91134C74.5523 7.89973 73.9781 7.91714 73.9334 7.96934C73.9036 8.00415 73.8736 10.4521 73.8662 13.4046C73.8588 19.3098 73.8662 19.2344 73.4039 19.9653C72.949 20.7019 71.89 21.3226 70.8534 21.4677C70.1897 21.5605 68.8548 21.5488 68.3179 21.4386C66.9382 21.166 66.0657 20.5337 65.6108 19.4838L65.402 19.0081L65.3275 7.92874L62.9932 7.91134C61.0692 7.89973 60.6591 7.91134 60.6217 7.98095Z" fill="#415A77"/>
<path d="M80.0559 24.6639L92.9947 24.6348V21.3864L88.8781 21.369L84.7541 21.3574V7.96934L84.5229 7.93454C84.3962 7.91713 83.3372 7.89973 82.1738 7.89973H80.0559V24.6639Z" fill="#415A77"/>
<path d="M143.779 4.02431C143.712 4.16841 143.085 5.14829 142.399 6.20744C141.705 7.26658 140.818 8.63554 140.43 9.24796C139.222 11.1573 138.969 11.5464 138.074 12.9369C136.769 14.9544 135.755 16.5323 134.666 18.2543C134.121 19.1045 133.249 20.4662 132.727 21.2803C131.712 22.8583 130.803 24.3786 130.84 24.4218C130.855 24.429 131.183 24.2489 131.571 24.0039C131.959 23.7661 132.853 23.2258 133.547 22.8079C136.194 21.2299 136.717 20.9201 137.917 20.1924C138.603 19.7817 139.506 19.2269 139.931 18.9675C140.356 18.7082 141.191 18.1966 141.795 17.8364C142.392 17.4762 142.973 17.0942 143.093 16.979C143.309 16.7701 144.249 15.4227 144.249 15.3146C144.249 15.2714 140.497 15.0696 139.535 15.0624C139.304 15.0624 139.304 15.0696 139.714 14.5221C140.244 13.8232 140.557 13.6719 142.757 13.0306C143.518 12.8073 144.636 12.4758 145.248 12.2885L146.352 11.9571L147.448 10.3431C149.178 7.77814 149.581 7.26658 150.282 6.67576C150.632 6.38756 151.139 6.03451 151.423 5.89761L151.93 5.63824V6.30831C151.922 7.83577 151.587 8.54186 149.156 12.13C148.872 12.5479 148.798 12.7136 148.827 12.8649C148.872 13.0883 149.812 15.3867 150.356 16.6259L150.744 17.4833L150.356 18.0526C150.14 18.3624 149.939 18.6361 149.909 18.6577C149.872 18.6793 149.551 18.4632 149.193 18.1823C148.827 17.8941 148.149 17.3681 147.679 17.0006C147.209 16.6331 146.777 16.2729 146.717 16.208C146.665 16.1432 146.575 16.0928 146.523 16.0928C146.463 16.0928 146.173 16.3954 145.867 16.7556C143.883 19.1188 142.653 20.5526 140.505 23.024C139.811 23.8165 139.252 24.4938 139.252 24.5299C139.252 24.5658 140.371 24.5947 141.929 24.5947H144.614L144.786 24.3641C144.882 24.2417 145.076 23.9462 145.218 23.7157C145.36 23.4924 145.703 22.9519 145.979 22.5269L146.478 21.7488L149.118 21.7704L151.758 21.7847L152.034 22.9952C152.191 23.658 152.34 24.2776 152.37 24.3786L152.429 24.5587H157.933L157.91 24.3066C157.904 24.1696 157.828 23.7589 157.746 23.4059C157.664 23.0456 157.44 22.0729 157.255 21.2444C157.06 20.4086 156.859 19.5367 156.807 19.299C156.748 19.0613 156.672 18.7226 156.635 18.5425C156.59 18.3624 156.412 17.5843 156.218 16.8133C156.032 16.0423 155.763 14.9183 155.621 14.3275C155.48 13.7295 155.225 12.6776 155.062 11.9859C154.89 11.2942 154.675 10.3864 154.585 9.96847C154.42 9.24076 154.108 7.93665 153.496 5.42929C153.339 4.77363 153.19 4.13238 153.16 4.00269L153.108 3.77213H143.906L143.779 4.02431Z" fill="#415A77"/>
<path d="M159.349 24.6348H164.048V7.92874L161.677 7.91133L159.312 7.89973L159.349 24.6348Z" fill="#415A77"/>
<path d="M165.391 7.96935C165.368 8.00995 165.36 11.7746 165.368 16.3398L165.391 24.6348L170.051 24.658V18.9211H172.147L172.646 19.5302C172.923 19.8608 173.639 20.7541 174.243 21.514C176.144 23.8982 176.503 24.3389 176.628 24.4898L176.764 24.6291L179.351 24.6116C180.775 24.6059 181.968 24.5826 181.998 24.5711C182.021 24.5594 181.797 24.2404 181.491 23.8634C180.775 22.9933 180.223 22.3087 179.284 21.1544C178.874 20.6439 178.203 19.826 177.792 19.3388C177.382 18.8457 177.061 18.4397 177.076 18.4339C177.092 18.4223 177.427 18.2947 177.823 18.1438C178.62 17.8422 179.627 17.2099 180.081 16.7284C181.491 15.2435 181.767 12.8478 180.761 10.9799C180.223 10.0054 179.061 9.03088 177.844 8.54942C177.195 8.29999 176.218 8.07956 175.294 7.98675C174.19 7.87073 165.442 7.85913 165.391 7.96935ZM174.586 11.1655C175.093 11.27 175.749 11.6238 176.062 11.9602C176.472 12.3953 176.636 12.9058 176.599 13.5728C176.554 14.2689 176.353 14.6576 175.801 15.11C175.025 15.7481 174.511 15.8467 171.975 15.8467H170.051V11.0959L170.334 11.0727C170.954 11.0089 174.19 11.0843 174.586 11.1655Z" fill="#415A77"/>
<path d="M102.785 27C101.195 27 99.824 26.5526 98.6731 25.6579C97.5432 24.7368 96.6853 23.5132 96.0993 21.9868C95.5134 20.4605 95.2205 18.7632 95.2205 16.8947C95.2205 14.1842 95.8169 11.5132 97.0096 8.88158C98.2023 6.25 99.7717 4.11842 101.718 2.48684C103.685 0.828947 105.725 0 107.838 0C109.491 0 110.852 0.421053 111.919 1.26316C113.007 2.10526 113.792 3.10526 114.273 4.26316C114.754 5.39474 114.984 6.40789 114.963 7.30263C114.943 8.06579 114.754 8.65789 114.398 9.07895C114.043 9.47368 113.624 9.67105 113.143 9.67105C112.787 9.67105 112.494 9.57895 112.264 9.39474C112.034 9.18421 111.887 8.81579 111.825 8.28947C111.657 7.05263 111.197 6.01316 110.444 5.17105C109.69 4.30263 108.592 3.86842 107.148 3.86842C105.683 3.86842 104.281 4.47368 102.942 5.68421C101.603 6.89474 100.515 8.44737 99.6776 10.3421C98.8615 12.2105 98.4534 14.0789 98.4534 15.9474C98.4534 18.2632 98.9138 20.0395 99.8345 21.2763C100.776 22.5132 101.99 23.1316 103.475 23.1316C104.815 23.1316 106.06 22.6974 107.211 21.8289C108.362 20.9605 109.303 19.7368 110.036 18.1579C109.45 18.1579 108.801 18.2368 108.09 18.3947L107.242 18.6316C106.824 18.7632 106.489 18.8289 106.238 18.8289C105.882 18.8289 105.589 18.6974 105.359 18.4342C105.129 18.1711 105.013 17.8026 105.013 17.3289C105.013 16.7763 105.139 16.3026 105.39 15.9079C105.662 15.4868 106.007 15.1711 106.426 14.9605C106.824 14.75 107.441 14.5789 108.278 14.4474C109.115 14.3158 109.962 14.25 110.82 14.25C111.971 14.25 113.091 14.4737 114.179 14.9211C114.681 15.1316 114.932 15.5658 114.932 16.2237C114.932 16.7763 114.807 17.2763 114.555 17.7237C114.304 18.1447 113.99 18.4342 113.614 18.5921C113.384 18.6974 113.206 18.7368 113.08 18.7105C112.076 21.1579 110.663 23.1579 108.843 24.7105C107.022 26.2368 105.003 27 102.785 27Z" fill="#C5A059"/>
<path d="M121.87 26.9605C120.322 26.9605 119.077 26.3158 118.135 25.0263C117.215 23.7105 116.754 22.0263 116.754 19.9737C116.754 17.9737 117.204 15.9868 118.104 14.0132C119.004 12.0132 120.176 10.3816 121.619 9.11842C123.063 7.85526 124.549 7.22368 126.076 7.22368C127.102 7.22368 128.002 7.53947 128.776 8.17105C129.55 8.77632 130.146 9.61842 130.565 10.6974C130.983 11.75 131.193 12.9342 131.193 14.25C131.193 16.25 130.743 18.2368 129.843 20.2105C128.943 22.1842 127.771 23.8026 126.328 25.0658C124.884 26.3289 123.398 26.9605 121.87 26.9605ZM122.435 23.4474C123.335 23.4474 124.214 23.0263 125.072 22.1842C125.93 21.3158 126.631 20.2237 127.175 18.9079C127.719 17.5921 127.991 16.3026 127.991 15.0395C127.991 13.8026 127.75 12.7763 127.269 11.9605C126.788 11.1447 126.15 10.7368 125.355 10.7368C124.455 10.7368 123.576 11.1842 122.718 12.0789C121.86 12.9737 121.159 14.1053 120.615 15.4737C120.092 16.8158 119.83 18.1316 119.83 19.4211C119.83 20.6053 120.06 21.5789 120.521 22.3421C120.981 23.0789 121.619 23.4474 122.435 23.4474Z" fill="#C5A059"/>
</svg>
