<svg width="22" height="22" viewBox="0 0 22 22" fill="none" xmlns="http://www.w3.org/2000/svg">
<path d="M6.55556 21V19.8889C6.55556 19.2995 6.78968 18.7343 7.20643 18.3175C7.62318 17.9008 8.18841 17.6667 8.77778 17.6667H13.2222C13.8116 17.6667 14.3768 17.9008 14.7936 18.3175C15.2103 18.7343 15.4444 19.2995 15.4444 19.8889V21M16.5556 8.77778H18.7778C19.3671 8.77778 19.9324 9.0119 20.3491 9.42865C20.7659 9.8454 21 10.4106 21 11V12.1111M1 12.1111V11C1 10.4106 1.23413 9.8454 1.65087 9.42865C2.06762 9.0119 2.63285 8.77778 3.22222 8.77778H5.44444M8.77778 12.1111C8.77778 12.7005 9.0119 13.2657 9.42865 13.6825C9.8454 14.0992 10.4106 14.3333 11 14.3333C11.5894 14.3333 12.1546 14.0992 12.5713 13.6825C12.9881 13.2657 13.2222 12.7005 13.2222 12.1111C13.2222 11.5217 12.9881 10.9565 12.5713 10.5398C12.1546 10.123 11.5894 9.88889 11 9.88889C10.4106 9.88889 9.8454 10.123 9.42865 10.5398C9.0119 10.9565 8.77778 11.5217 8.77778 12.1111ZM14.3333 3.22222C14.3333 3.81159 14.5675 4.37682 14.9842 4.79357C15.401 5.21032 15.9662 5.44444 16.5556 5.44444C17.1449 5.44444 17.7102 5.21032 18.1269 4.79357C18.5437 4.37682 18.7778 3.81159 18.7778 3.22222C18.7778 2.63285 18.5437 2.06762 18.1269 1.65087C17.7102 1.23413 17.1449 1 16.5556 1C15.9662 1 15.401 1.23413 14.9842 1.65087C14.5675 2.06762 14.3333 2.63285 14.3333 3.22222ZM3.22222 3.22222C3.22222 3.81159 3.45635 4.37682 3.8731 4.79357C4.28984 5.21032 4.85507 5.44444 5.44444 5.44444C6.03381 5.44444 6.59905 5.21032 7.01579 4.79357C7.43254 4.37682 7.66667 3.81159 7.66667 3.22222C7.66667 2.63285 7.43254 2.06762 7.01579 1.65087C6.59905 1.23413 6.03381 1 5.44444 1C4.85507 1 4.28984 1.23413 3.8731 1.65087C3.45635 2.06762 3.22222 2.63285 3.22222 3.22222Z" stroke="#C5A059" stroke-width="2" stroke-linecap="round" stroke-linejoin="round"/>
</svg>
