<svg width="28" height="27" viewBox="0 0 28 27" fill="none" xmlns="http://www.w3.org/2000/svg">
<path d="M12.2252 20.9096C9.02016 19.2415 6.30168 16.7719 4.33452 13.7412C2.36736 10.7104 1.21856 7.22194 1 3.61538C1 2.92174 1.27555 2.25651 1.76603 1.76603C2.25651 1.27555 2.92174 1 3.61538 1H8.84615L11.4615 7.53846L8.19231 9.5C9.59279 12.3397 11.8911 14.638 14.7308 16.0385L16.6923 12.7692L17.5423 13.1092M21.9231 25.1923C22.1916 24.0824 22.7608 23.068 23.5683 22.2606C24.3757 21.4531 25.3901 20.8839 26.5 20.6154C25.3901 20.3469 24.3757 19.7777 23.5683 18.9702C22.7608 18.1628 22.1916 17.1484 21.9231 16.0385C21.6546 17.1484 21.0853 18.1628 20.2779 18.9702C19.4704 19.7777 18.456 20.3469 17.3462 20.6154C18.456 20.8839 19.4704 21.4531 20.2779 22.2606C21.0853 23.068 21.6546 24.0824 21.9231 25.1923Z" stroke="white" stroke-width="2" stroke-linecap="round" stroke-linejoin="round"/>
</svg>
