<svg width="22" height="22" viewBox="0 0 22 22" fill="none" xmlns="http://www.w3.org/2000/svg">
<path d="M10.2579 19.9474H3.10526C2.54691 19.9474 2.01143 19.7256 1.61662 19.3308C1.2218 18.9359 1 18.4005 1 17.8421V5.21053C1 4.65218 1.2218 4.11669 1.61662 3.72188C2.01143 3.32707 2.54691 3.10526 3.10526 3.10526H15.7368C16.2952 3.10526 16.8307 3.32707 17.2255 3.72188C17.6203 4.11669 17.8421 4.65218 17.8421 5.21053V9.42105H1M13.6316 1V5.21053M5.21053 1V5.21053M16.7895 15.2063V16.7895L17.8421 17.8421M12.5789 16.7895C12.5789 17.9062 13.0226 18.9771 13.8122 19.7668C14.6018 20.5564 15.6728 21 16.7895 21C17.9062 21 18.9771 20.5564 19.7668 19.7668C20.5564 18.9771 21 17.9062 21 16.7895C21 15.6728 20.5564 14.6018 19.7668 13.8122C18.9771 13.0226 17.9062 12.5789 16.7895 12.5789C15.6728 12.5789 14.6018 13.0226 13.8122 13.8122C13.0226 14.6018 12.5789 15.6728 12.5789 16.7895Z" stroke="#415A77" stroke-width="2" stroke-linecap="round" stroke-linejoin="round"/>
</svg>
