<svg width="22" height="22" viewBox="0 0 22 22" fill="none" xmlns="http://www.w3.org/2000/svg">
<path d="M1 3.22222H3.77778L5.59111 8.66333C6.03357 9.99099 6.8826 11.1457 8.01791 11.964C9.15322 12.7822 10.5172 13.2224 11.9167 13.2222H14.8889C16.5097 13.2222 18.064 12.5784 19.2101 11.4323C20.3562 10.2863 21 8.73188 21 7.11111C21 5.49034 20.3562 3.93596 19.2101 2.7899C18.064 1.64385 16.5097 1 14.8889 1H14.3333V7.66667M5.44444 7.66667H21M8.77778 16.5556L9.88889 13.2222M16.5556 13.2222L17.6667 16.5556M5.44444 18.7778C5.44444 19.3671 5.67857 19.9324 6.09532 20.3491C6.51207 20.7659 7.0773 21 7.66667 21C8.25604 21 8.82127 20.7659 9.23802 20.3491C9.65476 19.9324 9.88889 19.3671 9.88889 18.7778C9.88889 18.1884 9.65476 17.6232 9.23802 17.2064C8.82127 16.7897 8.25604 16.5556 7.66667 16.5556C7.0773 16.5556 6.51207 16.7897 6.09532 17.2064C5.67857 17.6232 5.44444 18.1884 5.44444 18.7778ZM16.5556 18.7778C16.5556 19.3671 16.7897 19.9324 17.2064 20.3491C17.6232 20.7659 18.1884 21 18.7778 21C19.3671 21 19.9324 20.7659 20.3491 20.3491C20.7659 19.9324 21 19.3671 21 18.7778C21 18.1884 20.7659 17.6232 20.3491 17.2064C19.9324 16.7897 19.3671 16.5556 18.7778 16.5556C18.1884 16.5556 17.6232 16.7897 17.2064 17.2064C16.7897 17.6232 16.5556 18.1884 16.5556 18.7778Z" stroke="#C5A059" stroke-width="2" stroke-linecap="round" stroke-linejoin="round"/>
</svg>
