<svg width="22" height="20" viewBox="0 0 22 20" fill="none" xmlns="http://www.w3.org/2000/svg">
<path d="M3 7H7M13.75 2L14.75 4H17M16 2L13 7L15 10M15 10H21M15 10L13 13M19.25 8L18 10L19.25 12M13 13L16 18M13 13H12M17 16H14.75L13.75 18M11 7L13.088 7.008M3 11.5C2.23743 11.9403 1.64145 12.6199 1.30448 13.4334C0.967516 14.2469 0.908398 15.1488 1.1363 15.9994C1.3642 16.8499 1.86638 17.6015 2.56496 18.1375C3.26353 18.6735 4.11946 18.9641 5 18.9641C5.88054 18.9641 6.73647 18.6735 7.43505 18.1375C8.13362 17.6015 8.6358 16.8499 8.8637 15.9994C9.0916 15.1488 9.03249 14.2469 8.69552 13.4334C8.35855 12.6199 7.76257 11.9403 7 11.5V3C7 2.46957 6.78929 1.96086 6.41421 1.58579C6.03914 1.21071 5.53043 1 5 1C4.46957 1 3.96086 1.21071 3.58579 1.58579C3.21071 1.96086 3 2.46957 3 3V11.5Z" stroke="#C5A059" stroke-width="2" stroke-linecap="round" stroke-linejoin="round"/>
</svg>
