<svg width="32" height="34" viewBox="0 0 32 34" fill="none" xmlns="http://www.w3.org/2000/svg">
<path d="M24.7679 0.807003C18.9599 -0.269001 12.9284 -0.269001 7.12042 0.807003C4.55148 1.345 1.31239 4.35782 0.753927 6.72502C-0.251309 11.3518 -0.251309 16.0863 0.753927 20.7131C1.42408 23.0803 4.66317 26.0931 7.12042 26.6311C7.23211 26.6311 7.3438 26.7387 7.3438 26.8463V33.6251C7.3438 33.9479 7.79058 34.1631 8.01396 33.8403L11.3647 30.5047C11.3647 30.5047 14.0454 27.8147 14.4921 27.3843C14.4921 27.3843 14.6038 27.2767 14.7155 27.2767C18.0663 27.3843 21.5288 27.0615 24.8796 26.5235C27.4485 25.9855 30.6876 22.9727 31.2461 20.6055C32.2513 15.9787 32.2513 11.2442 31.2461 6.61742C30.5759 4.35782 27.3368 1.345 24.7679 0.807003ZM24.8796 21.0359C24.3211 22.1119 23.651 22.9727 22.534 23.5107C22.199 23.6183 21.8639 23.7259 21.5288 23.8335C21.082 23.7259 20.7469 23.6183 20.4119 23.5107C16.8377 22.1119 13.4869 20.1751 10.8063 17.3775C9.35428 15.7635 8.12565 13.9342 7.12042 11.9974C6.67365 11.029 6.22688 10.1682 5.8918 9.19983C5.55672 8.33903 6.11518 7.47823 6.67364 6.83262C7.23211 6.18702 7.90227 5.75662 8.68412 5.43382C9.24258 5.11102 9.80105 5.32622 10.2478 5.75662C11.1414 6.83262 12.0349 7.90863 12.7051 9.09223C13.1518 9.84543 13.0401 10.7062 12.2583 11.2442C12.0349 11.3518 11.9232 11.4594 11.6998 11.6746C11.5881 11.7822 11.3647 11.8898 11.253 12.105C11.0297 12.4278 11.0297 12.7506 11.1414 13.0734C12.0349 15.5483 13.7103 17.4851 16.2792 18.5611C16.726 18.7763 17.0611 18.8839 17.6195 18.8839C18.4014 18.7763 18.7365 17.9155 19.2949 17.4851C19.8534 17.0547 20.5236 17.0547 21.1937 17.3775C21.7522 17.7003 22.3106 18.1307 22.9808 18.5611C23.5393 18.9915 24.0977 19.3143 24.6562 19.7447C24.9913 19.9599 25.103 20.4979 24.8796 21.0359ZM20.1885 12.9658C19.9651 12.9658 20.0768 12.9658 20.1885 12.9658C19.7417 12.9658 19.63 12.7506 19.5183 12.4278C19.5183 12.2126 19.5183 11.8898 19.4066 11.6746C19.2949 11.2442 19.0716 10.8138 18.6248 10.491C18.4014 10.3834 18.178 10.2758 17.9546 10.1682C17.6195 10.0606 17.3962 10.0606 17.0611 10.0606C16.726 9.95304 16.6143 9.73783 16.6143 9.41503C16.6143 9.19983 16.9494 8.98463 17.1728 8.98463C18.9599 9.09223 20.3002 10.0606 20.5236 12.105C20.5236 12.2126 20.5236 12.4278 20.5236 12.5354C20.5236 12.7506 20.4119 12.9658 20.1885 12.9658ZM19.0715 8.23143C18.5131 8.01623 17.9546 7.80103 17.2845 7.69343C17.0611 7.69343 16.726 7.58583 16.5026 7.58583C16.1675 7.58583 15.9442 7.37063 16.0558 7.04782C16.0558 6.72502 16.2792 6.50982 16.6143 6.61742C17.7312 6.72502 18.7365 6.94022 19.7417 7.37063C21.7522 8.33903 22.8691 9.95303 23.2042 12.105C23.2042 12.2126 23.2042 12.3202 23.2042 12.4278C23.2042 12.643 23.2042 12.8582 23.2042 13.181C23.2042 13.2886 23.2042 13.3962 23.2042 13.5038C23.0925 13.9342 22.3106 14.0419 22.199 13.5038C22.199 13.3962 22.0873 13.181 22.0873 13.0734C22.0873 12.105 21.8639 11.1366 21.4171 10.2758C20.7469 9.30743 19.9651 8.66183 19.0715 8.23143ZM25.103 14.6875C24.7679 14.6875 24.5445 14.3647 24.5445 14.0419C24.5445 13.3962 24.4328 12.7506 24.3211 12.105C23.8743 8.66183 20.9703 5.86422 17.5079 5.32622C16.9494 5.21862 16.3909 5.21862 15.9442 5.11102C15.6091 5.11102 15.1623 5.11102 15.0506 4.68062C14.9389 4.35782 15.274 4.03501 15.6091 4.03501C15.7208 4.03501 15.8325 4.03501 15.8325 4.03501C16.0558 4.03501 20.4119 4.14261 15.8325 4.03501C20.5236 4.14261 24.4328 7.15543 25.2147 11.6746C25.3263 12.4278 25.438 13.181 25.438 14.0419C25.6614 14.3647 25.438 14.6875 25.103 14.6875Z" fill="#C5A059"/>
</svg>
