<svg width="33" height="31" viewBox="0 0 33 31" fill="none" xmlns="http://www.w3.org/2000/svg">
<path d="M28.1707 4.52083C25.0662 1.61458 20.9268 0 16.5575 0C7.47387 0 0.114981 6.88889 0.114981 15.3924C0.114981 18.0833 0.919861 20.7743 2.29965 23.0347L0 31L8.73868 28.8472C11.1533 30.0313 13.7979 30.6771 16.5575 30.6771C25.6411 30.6771 33 23.7882 33 15.2847C32.885 11.3021 31.2753 7.42708 28.1707 4.52083ZM24.4913 20.8819C24.1463 21.7431 22.5366 22.6042 21.7317 22.7118C21.0418 22.8194 20.122 22.8194 19.2021 22.6042C18.6272 22.3889 17.8223 22.1736 16.9024 21.7431C12.7631 20.1285 10.1185 16.2535 9.8885 15.9306C9.65854 15.7153 8.16377 13.8854 8.16377 11.9479C8.16377 10.0104 9.19861 9.1493 9.54355 8.71875C9.8885 8.28819 10.3484 8.28819 10.6934 8.28819C10.9233 8.28819 11.2683 8.28819 11.4983 8.28819C11.7282 8.28819 12.0732 8.18056 12.4181 8.93403C12.7631 9.6875 13.5679 11.625 13.6829 11.7326C13.7979 11.9479 13.7979 12.1632 13.6829 12.3785C13.5679 12.5938 13.453 12.809 13.223 13.0243C12.993 13.2396 12.7631 13.5625 12.6481 13.6701C12.4181 13.8854 12.1882 14.1007 12.4181 14.4236C12.6481 14.8542 13.453 16.0382 14.7178 17.1146C16.3275 18.4062 17.5923 18.8368 18.0523 19.0521C18.5122 19.2674 18.7422 19.1597 18.9721 18.9444C19.2021 18.7292 20.007 17.8681 20.2369 17.4375C20.4669 17.0069 20.8118 17.1146 21.1568 17.2222C21.5017 17.3299 23.5714 18.2986 23.9164 18.5139C24.3763 18.7292 24.6063 18.8368 24.7213 18.9444C24.8362 19.2674 24.8362 20.0208 24.4913 20.8819Z" fill="#C5A059"/>
</svg>
